<svg width="435" height="100" viewBox="0 0 435 100" fill="none" xmlns="http://www.w3.org/2000/svg">
<path d="M115.624 99.76C112.104 99.76 108.84 98.96 105.832 97.36C102.888 95.76 100.264 93.584 97.96 90.832C95.656 88.144 93.736 85.104 92.2 81.712C90.92 78.832 89.864 75.92 89.032 72.976C88.264 70.032 87.688 67.28 87.304 64.72C86.92 62.16 86.728 60.048 86.728 58.384C86.728 56.336 86.952 55.184 87.4 54.928C88.616 55.056 90.632 54.544 93.448 53.392C96.328 52.24 99.72 50.544 103.624 48.304C107.592 46.064 111.848 43.376 116.392 40.24C121 37.04 125.608 33.456 130.216 29.488C134.888 25.52 139.368 21.232 143.656 16.624C147.944 12.016 151.72 7.184 154.984 2.128C155.752 0.911999 156.488 0.303999 157.192 0.303999C157.768 0.303999 158.056 0.655998 158.056 1.36C158.056 1.936 157.832 2.576 157.384 3.27999C154.312 8.4 150.664 13.424 146.44 18.352C142.216 23.216 137.704 27.792 132.904 32.08C128.104 36.368 123.272 40.24 118.408 43.696C113.608 47.152 109 50.032 104.584 52.336C100.232 54.64 96.392 56.208 93.064 57.04C92.872 56.912 92.776 57.232 92.776 58C92.776 59.088 93 60.848 93.448 63.28C93.896 65.648 94.568 68.368 95.464 71.44C96.424 74.448 97.576 77.52 98.92 80.656C100.968 85.456 103.4 89.136 106.216 91.696C109.096 94.32 112.392 95.632 116.104 95.632C118.6 95.632 121.16 95.248 123.784 94.48C126.408 93.776 128.808 92.656 130.984 91.12C133.16 89.648 134.856 87.76 136.072 85.456C136.456 84.56 136.904 84.112 137.416 84.112C137.672 84.112 137.8 84.304 137.8 84.688C137.8 85.136 137.64 85.648 137.32 86.224C136.168 88.592 134.408 90.8 132.04 92.848C129.672 94.896 127.016 96.56 124.072 97.84C121.192 99.12 118.376 99.76 115.624 99.76ZM34.408 98.512C30.056 98.512 25.832 97.904 21.736 96.688C17.704 95.536 14.056 93.808 10.792 91.504C7.592 89.2 5.032 86.384 3.112 83.056C1.256 79.728 0.328 75.952 0.328 71.728C0.328 70.576 0.424 69.392 0.616 68.176C0.808 66.896 1.064 65.584 1.384 64.24C2.024 61.936 3.048 59.952 4.456 58.288C5.928 56.56 7.432 55.216 8.968 54.256C10.504 53.232 11.656 52.688 12.424 52.624H12.712C13.352 52.624 13.672 52.816 13.672 53.2C13.672 53.52 13.512 53.776 13.192 53.968C12.616 54.224 11.624 54.96 10.216 56.176C8.872 57.328 7.528 58.96 6.184 61.072C4.84 63.12 3.976 65.584 3.592 68.464C3.4 69.68 3.304 70.832 3.304 71.92C3.304 75.76 4.136 79.056 5.8 81.808C7.464 84.496 9.64 86.704 12.328 88.432C15.016 90.16 17.96 91.408 21.16 92.176C24.36 93.008 27.496 93.424 30.568 93.424C31.784 93.424 32.968 93.36 34.12 93.232C35.272 93.168 36.36 93.008 37.384 92.752C44.296 91.216 50.28 88.752 55.336 85.36C60.456 81.968 64.872 78.064 68.584 73.648C72.296 69.232 75.432 64.688 77.992 60.016C80.616 55.344 82.824 50.96 84.616 46.864C85 45.904 85.64 44.4 86.536 42.352C87.496 40.304 88.552 37.968 89.704 35.344C90.92 32.72 92.136 30.064 93.352 27.376C94.632 24.688 95.784 22.224 96.808 19.984C97.832 17.744 98.664 16.016 99.304 14.8C95.016 15.312 90.376 15.792 85.384 16.24C80.456 16.624 75.752 17.456 71.272 18.736C66.28 20.144 62.184 22.192 58.984 24.88C55.848 27.568 53.512 30.512 51.976 33.712C50.504 36.912 49.768 39.952 49.768 42.832C49.768 45.968 50.568 48.592 52.168 50.704C53.768 52.816 55.976 53.872 58.792 53.872C60.2 53.872 61.704 53.584 63.304 53.008C65.16 52.368 66.696 51.248 67.912 49.648C69.128 47.984 70.024 46.128 70.6 44.08C71.24 41.968 71.56 39.952 71.56 38.032C71.56 37.008 71.464 36.016 71.272 35.056V34.864C71.272 34.608 71.4 34.48 71.656 34.48C72.168 34.48 72.616 34.864 73 35.632C73.32 36.272 73.512 36.976 73.576 37.744C73.704 38.448 73.768 39.152 73.768 39.856C73.768 41.904 73.32 43.952 72.424 46C71.528 47.984 70.344 49.776 68.872 51.376C67.4 52.976 65.736 54.128 63.88 54.832C62.856 55.216 61.864 55.504 60.904 55.696C59.944 55.824 59.016 55.888 58.12 55.888C55.368 55.888 52.904 55.184 50.728 53.776C48.616 52.304 46.952 50.384 45.736 48.016C44.584 45.648 44.008 43.088 44.008 40.336C44.008 37.2 44.872 34.032 46.6 30.832C48.328 27.568 51.112 24.624 54.952 22C58.792 19.312 63.848 17.264 70.12 15.856C75.368 14.704 80.712 13.968 86.152 13.648C91.592 13.264 96.392 12.88 100.552 12.496C100.808 12.112 101.32 11.376 102.088 10.288C102.92 9.2 103.848 8.112 104.872 7.024C105.96 5.872 107.016 5.136 108.04 4.816C108.744 4.624 109.352 4.528 109.864 4.528C111.016 4.528 111.912 4.848 112.552 5.488C113.256 6.12799 113.608 6.89599 113.608 7.79199C113.608 9.072 112.712 10.448 110.92 11.92C109.192 13.328 106.248 14.256 102.088 14.704C100.04 18.48 98.152 22.672 96.424 27.28C94.696 31.824 92.968 36.592 91.24 41.584C89.576 46.512 87.72 51.472 85.672 56.464C83.688 61.392 81.416 66.16 78.856 70.768C76.296 75.312 73.256 79.472 69.736 83.248C66.28 87.024 62.184 90.192 57.448 92.752C52.776 95.312 47.336 97.072 41.128 98.032C40.04 98.16 38.92 98.256 37.768 98.32C36.616 98.448 35.496 98.512 34.408 98.512ZM103.912 12.304C105.896 11.984 107.304 11.6 108.136 11.152C109.032 10.64 109.672 10.128 110.056 9.616C110.504 9.104 110.728 8.656 110.728 8.272C110.728 7.632 110.408 7.31199 109.768 7.31199C109.192 7.31199 108.488 7.632 107.656 8.272C107.016 8.72 106.344 9.36 105.64 10.192C104.936 11.024 104.36 11.728 103.912 12.304ZM137.55 82.288C136.846 82.352 136.046 82.192 135.15 81.808C134.254 81.424 133.454 80.72 132.75 79.696C132.11 78.672 131.79 77.232 131.79 75.376C131.79 73.84 132.078 71.984 132.654 69.808C131.886 71.024 130.894 72.528 129.678 74.32C128.462 76.048 127.15 77.584 125.742 78.928C124.526 80.08 123.374 80.912 122.286 81.424C121.198 81.936 120.206 82.192 119.31 82.192C117.646 82.192 116.302 81.456 115.278 79.984C114.254 78.448 113.742 76.464 113.742 74.032C113.742 71.472 114.382 68.56 115.662 65.296C116.942 62.032 119.022 58.64 121.902 55.12C123.758 52.88 125.998 51.088 128.622 49.744C131.31 48.336 133.934 47.632 136.494 47.632C137.966 47.632 139.374 47.888 140.718 48.4C142.062 48.848 143.246 49.616 144.27 50.704C144.718 51.152 144.942 51.664 144.942 52.24C144.942 52.624 144.782 52.944 144.462 53.2C144.142 53.456 143.726 53.52 143.214 53.392C142.51 51.152 141.006 50.032 138.702 50.032C137.614 50.032 136.366 50.384 134.958 51.088C132.782 52.24 130.51 54.128 128.142 56.752C125.838 59.376 123.822 62.096 122.094 64.912C121.838 65.296 121.422 66.032 120.846 67.12C120.334 68.208 119.822 69.424 119.31 70.768C118.798 72.112 118.446 73.424 118.254 74.704C118.19 75.088 118.158 75.376 118.158 75.568C118.158 75.696 118.158 75.92 118.158 76.24C118.158 78.352 118.958 79.408 120.558 79.408C122.478 79.408 124.654 78 127.086 75.184C128.75 73.136 130.254 70.992 131.598 68.752C132.942 66.512 134.318 64.112 135.726 61.552C136.686 59.824 137.582 58.384 138.414 57.232C139.246 56.08 140.43 55.504 141.966 55.504C142.67 55.504 143.374 55.6 144.078 55.792C144.782 55.984 145.518 56.016 146.286 55.888C145.774 56.4 145.07 57.36 144.174 58.768C143.342 60.176 142.446 61.776 141.486 63.568C140.526 65.36 139.662 67.184 138.894 69.04C138.126 70.896 137.582 72.496 137.262 73.84C137.198 74.224 137.102 74.768 136.974 75.472C136.91 76.176 136.878 76.688 136.878 77.008C136.878 78.8 137.39 79.696 138.414 79.696C139.438 79.696 140.526 79.088 141.678 77.872C142.894 76.656 144.078 75.152 145.23 73.36C146.382 71.568 147.438 69.776 148.398 67.984C149.358 66.128 150.126 64.624 150.702 63.472C150.958 62.832 151.342 62.512 151.854 62.512C152.174 62.512 152.334 62.736 152.334 63.184C152.334 63.376 152.238 63.728 152.046 64.24C151.278 65.84 150.35 67.664 149.262 69.712C148.174 71.696 146.99 73.648 145.71 75.568C144.43 77.424 143.086 78.992 141.678 80.272C140.334 81.488 138.958 82.16 137.55 82.288ZM161.988 82.096C160.772 82.096 159.556 81.616 158.34 80.656C157.124 79.632 156.516 78 156.516 75.76C156.516 74.032 156.932 72.048 157.764 69.808C158.532 67.632 159.556 65.52 160.836 63.472C162.18 61.424 163.14 59.76 163.716 58.48C163.908 57.968 164.004 57.52 164.004 57.136C164.004 55.984 163.268 55.152 161.796 54.64C160.388 54.128 158.532 53.84 156.228 53.776L155.076 56.944C154.372 58.992 153.38 61.392 152.1 64.144C150.884 66.896 149.508 69.552 147.972 72.112C146.5 74.672 144.963 76.72 143.363 78.256C143.235 78.384 143.075 78.448 142.883 78.448C142.627 78.448 142.467 78.288 142.403 77.968C142.275 77.648 142.403 77.264 142.787 76.816C145.284 73.488 147.524 69.808 149.508 65.776C151.492 61.68 153.156 57.52 154.5 53.296C155.908 49.072 156.932 45.168 157.572 41.584C157.764 40.56 158.115 39.824 158.628 39.376C159.14 38.864 159.684 38.608 160.26 38.608C161.092 38.608 161.86 39.024 162.564 39.856C163.268 40.624 163.62 41.744 163.62 43.216C163.62 43.472 163.588 43.76 163.524 44.08C163.524 44.4 163.492 44.72 163.428 45.04C163.172 46.384 162.404 47.664 161.124 48.88C159.908 50.032 158.916 50.896 158.148 51.472C158.788 51.536 159.46 51.6 160.164 51.664C160.868 51.664 161.636 51.664 162.468 51.664C165.476 51.664 168.452 51.472 171.396 51.088C171.524 51.472 171.588 51.76 171.588 51.952C171.588 52.784 171.332 53.84 170.82 55.12C170.372 56.4 169.892 57.552 169.38 58.576C169.124 59.152 168.612 60.208 167.844 61.744C167.076 63.216 166.244 64.912 165.348 66.832C164.452 68.688 163.684 70.544 163.044 72.4C162.468 74.192 162.18 75.728 162.18 77.008C162.18 78.672 162.82 79.504 164.1 79.504C165.06 79.504 166.116 78.896 167.268 77.68C168.42 76.4 169.54 74.864 170.628 73.072C171.78 71.216 172.804 69.424 173.7 67.696C174.66 65.904 175.396 64.496 175.908 63.472C176.164 62.832 176.516 62.512 176.964 62.512C177.22 62.512 177.348 62.736 177.348 63.184C177.348 63.44 177.252 63.824 177.06 64.336C176.356 65.808 175.524 67.472 174.564 69.328C173.604 71.184 172.516 73.008 171.3 74.8C170.148 76.592 168.868 78.16 167.46 79.504C166.116 80.784 164.644 81.616 163.044 82C162.852 82.064 162.5 82.096 161.988 82.096ZM180.395 82.288C177.707 82.288 175.883 81.584 174.923 80.176C173.963 78.704 173.483 76.976 173.483 74.992C173.483 72.944 173.771 70.832 174.347 68.656C174.923 66.48 175.435 64.656 175.883 63.184C176.907 59.6 178.187 55.792 179.723 51.76C181.323 47.664 183.051 43.664 184.907 39.76C186.827 35.792 188.715 32.24 190.571 29.104C192.043 26.608 193.611 24.752 195.275 23.536C197.003 22.256 198.507 21.616 199.787 21.616C200.811 21.616 201.611 22 202.187 22.768C202.827 23.472 203.147 24.56 203.147 26.032C203.147 27.056 202.955 28.272 202.571 29.68C202.251 31.088 201.675 32.688 200.843 34.48C198.603 39.472 195.915 44.464 192.779 49.456C189.707 54.448 185.803 59.12 181.067 63.472C180.811 64.304 180.459 65.296 180.011 66.448C179.627 67.536 179.275 68.656 178.955 69.808C178.571 71.536 178.379 73.008 178.379 74.224C178.379 76.208 178.763 77.712 179.531 78.736C180.363 79.696 181.355 80.176 182.507 80.176C183.531 80.176 184.619 79.824 185.771 79.12C186.923 78.352 188.011 77.264 189.035 75.856C190.571 73.616 191.947 71.344 193.163 69.04C194.443 66.672 195.403 64.848 196.043 63.568C196.427 62.864 196.843 62.512 197.291 62.512C197.611 62.512 197.771 62.704 197.771 63.088C197.771 63.408 197.675 63.76 197.483 64.144C196.907 65.424 196.139 67.088 195.179 69.136C194.283 71.12 193.131 73.136 191.723 75.184C190.379 77.168 188.747 78.864 186.827 80.272C184.971 81.616 182.827 82.288 180.395 82.288ZM181.835 60.4C184.139 58.032 186.379 55.312 188.555 52.24C190.731 49.104 192.747 45.872 194.603 42.544C196.523 39.152 198.123 35.952 199.403 32.944C199.851 31.984 200.203 30.928 200.459 29.776C200.779 28.624 200.939 27.664 200.939 26.896C200.939 26 200.715 25.552 200.267 25.552C200.011 25.552 199.627 25.808 199.115 26.32C198.603 26.768 197.931 27.568 197.099 28.72C195.883 30.32 194.539 32.496 193.067 35.248C191.659 38 190.219 40.944 188.747 44.08C187.275 47.216 185.931 50.256 184.715 53.2C183.499 56.08 182.539 58.48 181.835 60.4ZM216.768 82.288C216.064 82.352 215.264 82.192 214.368 81.808C213.472 81.424 212.672 80.72 211.968 79.696C211.328 78.672 211.008 77.232 211.008 75.376C211.008 73.84 211.296 71.984 211.872 69.808C211.104 71.024 210.112 72.528 208.896 74.32C207.68 76.048 206.368 77.584 204.96 78.928C203.744 80.08 202.592 80.912 201.504 81.424C200.416 81.936 199.424 82.192 198.528 82.192C196.864 82.192 195.52 81.456 194.496 79.984C193.472 78.448 192.96 76.464 192.96 74.032C192.96 71.472 193.6 68.56 194.88 65.296C196.16 62.032 198.24 58.64 201.12 55.12C202.976 52.88 205.216 51.088 207.84 49.744C210.528 48.336 213.152 47.632 215.712 47.632C217.184 47.632 218.592 47.888 219.936 48.4C221.28 48.848 222.464 49.616 223.488 50.704C223.936 51.152 224.16 51.664 224.16 52.24C224.16 52.624 224 52.944 223.68 53.2C223.36 53.456 222.944 53.52 222.432 53.392C221.728 51.152 220.224 50.032 217.92 50.032C216.832 50.032 215.584 50.384 214.176 51.088C212 52.24 209.728 54.128 207.36 56.752C205.056 59.376 203.04 62.096 201.312 64.912C201.056 65.296 200.64 66.032 200.064 67.12C199.552 68.208 199.04 69.424 198.528 70.768C198.016 72.112 197.664 73.424 197.472 74.704C197.408 75.088 197.376 75.376 197.376 75.568C197.376 75.696 197.376 75.92 197.376 76.24C197.376 78.352 198.176 79.408 199.776 79.408C201.696 79.408 203.872 78 206.304 75.184C207.968 73.136 209.472 70.992 210.816 68.752C212.16 66.512 213.536 64.112 214.944 61.552C215.904 59.824 216.8 58.384 217.632 57.232C218.464 56.08 219.648 55.504 221.184 55.504C221.888 55.504 222.592 55.6 223.296 55.792C224 55.984 224.736 56.016 225.504 55.888C224.992 56.4 224.288 57.36 223.392 58.768C222.56 60.176 221.664 61.776 220.704 63.568C219.744 65.36 218.88 67.184 218.112 69.04C217.344 70.896 216.8 72.496 216.48 73.84C216.416 74.224 216.32 74.768 216.192 75.472C216.128 76.176 216.096 76.688 216.096 77.008C216.096 78.8 216.608 79.696 217.632 79.696C218.656 79.696 219.744 79.088 220.896 77.872C222.112 76.656 223.296 75.152 224.448 73.36C225.6 71.568 226.656 69.776 227.616 67.984C228.576 66.128 229.344 64.624 229.92 63.472C230.176 62.832 230.56 62.512 231.072 62.512C231.392 62.512 231.552 62.736 231.552 63.184C231.552 63.376 231.456 63.728 231.264 64.24C230.496 65.84 229.568 67.664 228.48 69.712C227.392 71.696 226.208 73.648 224.928 75.568C223.648 77.424 222.304 78.992 220.896 80.272C219.552 81.488 218.176 82.16 216.768 82.288ZM284.192 90.832C277.92 90.832 272.16 89.904 266.912 88.048C261.728 86.192 257.536 83.472 254.336 79.888C251.136 76.24 249.376 71.76 249.056 66.448C248.928 64.272 249.28 61.872 250.112 59.248C250.944 56.624 252.096 54.032 253.568 51.472C255.104 48.848 256.896 46.512 258.944 44.464C261.056 42.352 263.296 40.752 265.664 39.664C265.856 39.536 266.144 39.44 266.528 39.376C266.976 39.312 267.296 39.28 267.488 39.28C267.872 39.28 268.064 39.376 268.064 39.568C268.064 39.888 267.584 40.4 266.624 41.104C263.936 43.216 261.728 45.648 260 48.4C258.208 51.152 256.864 54.096 255.968 57.232C255.072 60.368 254.624 63.536 254.624 66.736C254.624 70.512 255.424 73.776 257.024 76.528C258.688 79.216 260.896 81.424 263.648 83.152C266.4 84.944 269.536 86.256 273.056 87.088C276.576 87.92 280.256 88.336 284.096 88.336C288.384 88.336 292.608 87.856 296.768 86.896C300.992 85.936 304.832 84.56 308.288 82.768C313.6 79.952 317.792 76.464 320.864 72.304C324 68.144 325.568 64.016 325.568 59.92C325.568 57.744 325.088 55.664 324.128 53.68C323.232 51.696 321.76 49.904 319.712 48.304C318.176 47.088 316.288 45.936 314.048 44.848C311.872 43.76 309.536 42.704 307.04 41.68C304.608 40.656 302.208 39.632 299.84 38.608C297.472 37.52 295.392 36.368 293.6 35.152C291.04 33.424 289.152 31.568 287.936 29.584C286.784 27.6 286.208 25.616 286.208 23.632C286.208 21.264 286.88 18.96 288.224 16.72C289.632 14.48 291.52 12.464 293.888 10.672C296.32 8.816 299.04 7.376 302.048 6.352C304.672 5.456 307.52 4.752 310.592 4.23999C313.728 3.728 316.8 3.472 319.808 3.472C322.304 3.472 324.672 3.664 326.912 4.048C329.216 4.368 331.232 4.976 332.96 5.872C335.136 6.896 336.8 8.272 337.952 9.99999C339.104 11.664 339.68 13.424 339.68 15.28C339.68 17.84 338.528 20.08 336.224 22C335.392 22.64 334.464 23.248 333.44 23.824C332.416 24.336 331.2 24.784 329.792 25.168C329.536 25.232 329.248 25.264 328.928 25.264C328.16 25.264 327.776 25.04 327.776 24.592C327.776 24.336 327.968 24.08 328.352 23.824C328.8 23.504 329.44 23.312 330.272 23.248C332.192 22.992 333.632 22.256 334.592 21.04C335.616 19.824 336.128 18.416 336.128 16.816C336.128 15.152 335.552 13.52 334.4 11.92C333.312 10.256 331.616 8.88 329.312 7.79199C327.008 6.64 324.064 6.064 320.48 6.064C318.432 6.064 316.16 6.288 313.664 6.736C311.232 7.184 308.576 7.92 305.696 8.944C302.176 10.16 299.232 11.952 296.864 14.32C294.56 16.688 293.408 19.216 293.408 21.904C293.408 23.568 293.952 25.264 295.04 26.992C296.192 28.656 298.016 30.256 300.512 31.792C302.624 33.072 305.024 34.352 307.712 35.632C310.4 36.848 313.12 38.096 315.872 39.376C318.624 40.592 321.12 41.904 323.36 43.312C326.88 45.488 329.408 47.824 330.944 50.32C332.48 52.816 333.248 55.376 333.248 58C333.248 61.072 332.32 64.176 330.464 67.312C328.672 70.384 326.304 73.296 323.36 76.048C320.416 78.736 317.184 81.136 313.664 83.248C309.568 85.68 304.928 87.536 299.744 88.816C294.624 90.16 289.44 90.832 284.192 90.832ZM346.328 82C343.896 82 342.104 81.2 340.952 79.6C339.8 77.936 339.224 75.92 339.224 73.552C339.224 70.672 339.896 67.664 341.24 64.528C342.52 61.584 344.152 58.896 346.136 56.464C348.12 54.032 350.264 52.08 352.568 50.608C354.872 49.072 357.112 48.304 359.288 48.304C361.72 48.304 363.512 49.104 364.664 50.704C365.816 52.304 366.392 54.32 366.392 56.752C366.392 59.696 365.72 62.704 364.376 65.776C363.608 67.504 362.52 69.424 361.112 71.536C359.704 73.584 358.104 75.472 356.312 77.2C356.696 77.904 357.24 78.512 357.944 79.024C358.648 79.472 359.608 79.696 360.824 79.696C362.36 79.696 363.8 79.056 365.144 77.776C366.552 76.496 367.832 74.96 368.984 73.168C370.136 71.312 371.16 69.456 372.056 67.6C372.952 65.744 373.688 64.24 374.264 63.088C374.456 62.704 374.776 62.512 375.224 62.512C375.48 62.512 375.672 62.64 375.8 62.896C375.928 63.088 375.896 63.408 375.704 63.856C375.32 64.816 374.68 66.256 373.784 68.176C372.888 70.032 371.8 71.984 370.52 74.032C369.24 76.016 367.768 77.712 366.104 79.12C364.44 80.528 362.584 81.232 360.536 81.232C359.128 81.232 357.912 81.008 356.888 80.56C355.864 80.048 355.032 79.44 354.392 78.736C353.048 79.76 351.704 80.56 350.36 81.136C349.016 81.712 347.672 82 346.328 82ZM347.768 79.888C349.496 79.888 351.352 79.056 353.336 77.392C352.824 76.624 352.44 75.824 352.184 74.992C351.928 74.16 351.8 73.392 351.8 72.688C351.8 71.536 352.056 70.544 352.568 69.712C353.144 68.88 354.008 68.464 355.16 68.464C355.992 68.464 356.664 68.784 357.176 69.424C357.752 70 358.04 70.672 358.04 71.44C358.04 71.632 358.008 71.824 357.944 72.016C357.944 72.144 357.912 72.304 357.848 72.496C358.936 71.024 359.96 69.296 360.92 67.312C363.032 62.768 364.088 59.024 364.088 56.08C364.088 54.608 363.8 53.456 363.224 52.624C362.648 51.792 361.784 51.376 360.632 51.376C359.288 51.376 357.816 51.952 356.216 53.104C354.68 54.256 353.176 55.792 351.704 57.712C350.296 59.632 349.048 61.776 347.96 64.144C346.936 66.32 346.104 68.432 345.464 70.48C344.888 72.464 344.6 74.192 344.6 75.664C344.6 76.944 344.856 77.968 345.368 78.736C345.88 79.504 346.68 79.888 347.768 79.888ZM376.084 82.384C372.948 82.384 370.708 81.584 369.364 79.984C368.084 78.32 367.444 76.592 367.444 74.8C367.444 73.328 367.796 71.984 368.5 70.768C369.268 69.552 370.164 68.912 371.188 68.848C372.468 66.352 373.844 63.632 375.316 60.688C376.852 57.744 378.26 54.896 379.54 52.144C380.436 50.288 381.556 48.496 382.9 46.768C384.308 45.04 385.844 44.048 387.508 43.792H388.468C388.98 43.792 389.428 43.824 389.812 43.888C390.26 43.952 390.708 44.08 391.156 44.272C391.86 44.592 392.212 45.072 392.212 45.712C392.212 46.096 391.988 46.288 391.54 46.288C391.348 46.288 391.092 46.192 390.772 46C390.004 45.68 389.332 45.52 388.756 45.52C388.372 45.52 388.02 45.616 387.7 45.808C386.484 46.448 385.62 47.344 385.108 48.496C384.66 49.648 384.436 50.864 384.436 52.144C384.436 53.168 384.532 54.224 384.724 55.312C384.98 56.336 385.268 57.264 385.588 58.096C386.292 59.888 387.028 61.648 387.796 63.376C388.628 65.104 389.044 66.96 389.044 68.944C389.044 70.864 388.404 72.912 387.124 75.088C385.844 77.2 384.212 78.896 382.228 80.176L382.9 80.272C383.22 80.336 383.444 80.368 383.572 80.368C383.7 80.368 383.796 80.368 383.86 80.368C385.332 80.368 386.708 79.952 387.988 79.12C389.332 78.224 390.516 77.136 391.54 75.856C392.564 74.576 393.716 72.784 394.996 70.48C396.34 68.176 397.62 65.744 398.836 63.184C399.028 62.864 399.252 62.704 399.508 62.704C399.828 62.704 400.052 62.832 400.18 63.088C400.372 63.28 400.404 63.536 400.276 63.856C399.444 65.648 398.484 67.6 397.396 69.712C396.372 71.76 395.188 73.744 393.844 75.664C392.5 77.52 390.932 79.056 389.14 80.272C387.412 81.424 385.46 82 383.284 82C382.772 82 382.228 81.968 381.652 81.904C381.076 81.84 380.5 81.712 379.924 81.52C379.284 81.776 378.612 81.968 377.908 82.096C377.268 82.288 376.66 82.384 376.084 82.384ZM378.964 79.504C380.052 78.608 381.012 77.296 381.844 75.568C382.74 73.84 383.188 71.568 383.188 68.752C383.188 66.256 382.932 63.6 382.42 60.784C381.908 57.968 381.652 55.472 381.652 53.296C381.652 52.848 381.652 52.464 381.652 52.144C381.716 51.76 381.78 51.408 381.844 51.088C381.012 52.816 380.052 54.832 378.964 57.136C377.876 59.376 376.788 61.552 375.7 63.664C374.612 65.776 373.684 67.568 372.916 69.04C372.916 69.04 373.076 69.072 373.396 69.136C373.78 69.136 374.132 69.36 374.452 69.808C374.772 70.192 374.9 70.992 374.836 72.208C374.772 73.808 375.124 75.312 375.892 76.72C376.724 78.064 377.748 78.992 378.964 79.504ZM375.316 80.848C375.7 80.848 376.052 80.816 376.372 80.752C376.692 80.624 376.98 80.528 377.236 80.464C376.276 79.76 375.412 78.832 374.644 77.68C373.94 76.464 373.524 74.928 373.396 73.072C372.244 74.288 371.668 75.6 371.668 77.008C371.668 78.032 371.988 78.928 372.628 79.696C373.268 80.464 374.164 80.848 375.316 80.848ZM419.268 82.288C418.564 82.352 417.764 82.192 416.868 81.808C415.972 81.424 415.172 80.72 414.468 79.696C413.828 78.672 413.508 77.232 413.508 75.376C413.508 73.84 413.796 71.984 414.372 69.808C413.604 71.024 412.612 72.528 411.396 74.32C410.18 76.048 408.868 77.584 407.46 78.928C406.244 80.08 405.092 80.912 404.004 81.424C402.916 81.936 401.924 82.192 401.028 82.192C399.364 82.192 398.02 81.456 396.996 79.984C395.972 78.448 395.46 76.464 395.46 74.032C395.46 71.472 396.1 68.56 397.38 65.296C398.66 62.032 400.74 58.64 403.62 55.12C405.476 52.88 407.716 51.088 410.34 49.744C413.028 48.336 415.652 47.632 418.212 47.632C419.684 47.632 421.092 47.888 422.436 48.4C423.78 48.848 424.964 49.616 425.988 50.704C426.436 51.152 426.66 51.664 426.66 52.24C426.66 52.624 426.5 52.944 426.18 53.2C425.86 53.456 425.444 53.52 424.932 53.392C424.228 51.152 422.724 50.032 420.42 50.032C419.332 50.032 418.084 50.384 416.676 51.088C414.5 52.24 412.228 54.128 409.86 56.752C407.556 59.376 405.54 62.096 403.812 64.912C403.556 65.296 403.14 66.032 402.564 67.12C402.052 68.208 401.54 69.424 401.028 70.768C400.516 72.112 400.164 73.424 399.972 74.704C399.908 75.088 399.876 75.376 399.876 75.568C399.876 75.696 399.876 75.92 399.876 76.24C399.876 78.352 400.676 79.408 402.276 79.408C404.196 79.408 406.372 78 408.804 75.184C410.468 73.136 411.972 70.992 413.316 68.752C414.66 66.512 416.036 64.112 417.444 61.552C418.404 59.824 419.3 58.384 420.132 57.232C420.964 56.08 422.148 55.504 423.684 55.504C424.388 55.504 425.092 55.6 425.796 55.792C426.5 55.984 427.236 56.016 428.004 55.888C427.492 56.4 426.788 57.36 425.892 58.768C425.06 60.176 424.164 61.776 423.204 63.568C422.244 65.36 421.38 67.184 420.612 69.04C419.844 70.896 419.3 72.496 418.98 73.84C418.916 74.224 418.82 74.768 418.692 75.472C418.628 76.176 418.596 76.688 418.596 77.008C418.596 78.8 419.108 79.696 420.132 79.696C421.156 79.696 422.244 79.088 423.396 77.872C424.612 76.656 425.796 75.152 426.948 73.36C428.1 71.568 429.156 69.776 430.116 67.984C431.076 66.128 431.844 64.624 432.42 63.472C432.676 62.832 433.06 62.512 433.572 62.512C433.892 62.512 434.052 62.736 434.052 63.184C434.052 63.376 433.956 63.728 433.764 64.24C432.996 65.84 432.068 67.664 430.98 69.712C429.892 71.696 428.708 73.648 427.428 75.568C426.148 77.424 424.804 78.992 423.396 80.272C422.052 81.488 420.676 82.16 419.268 82.288Z" fill="#7B8FCC"/>
</svg>
